# xmcd CD database file
#
# Track frame offsets:
#	150
#	8283
#	19904
#	29233
#	44931
#	61391
#	80092
#	92141
#	105618
#	124893
#	139535
#	157470
#	171182
#	187212
#
# Disc length: 2715 seconds
#
# Revision: 0
# Processed by: cddbd v1.5.1PL0 Copyright (c) Steve Scherf et al.
# Submitted via: CDex 1.51
#
DISCID=cd0a990e
DTITLE=Jo Jones Crooner - Jjcrooner@aol.com
DYEAR=2003
DGENRE=Jazz
TTITLE0=Saturday Night
TTITLE1=Nice n Easy
TTITLE2=Feel so Young
TTITLE3=Beyond the Sea
TTITLE4=Cheek to Cheek
TTITLE5=Our love is here to stay
TTITLE6=It had to be you
TTITLE7=Mac the Knife
TTITLE8=One for my baby
TTITLE9=Since I fell for you
TTITLE10=Mustang Sally
TTITLE11=My Girl
TTITLE12=Love on the Rocks
TTITLE13=I've Got You Under My Skin
EXTD=YEAR: 2003
EXTT0=
EXTT1=
EXTT2=
EXTT3=
EXTT4=
EXTT5=
EXTT6=
EXTT7=
EXTT8=
EXTT9=
EXTT10=
EXTT11=
EXTT12=
EXTT13=
PLAYORDER=
